<svg width="25" height="28" viewBox="0 0 25 28" fill="none" xmlns="http://www.w3.org/2000/svg">
<path d="M6.17687 23.7222C5.64214 23.7222 5.18439 23.5318 4.8036 23.151C4.42282 22.7702 4.23242 22.3124 4.23242 21.7777V6.22217C4.23242 5.68744 4.42282 5.22969 4.8036 4.8489C5.18439 4.46812 5.64214 4.27772 6.17687 4.27772H17.8435C18.3783 4.27772 18.836 4.46812 19.2168 4.8489C19.5976 5.22969 19.788 5.68744 19.788 6.22217V21.7777C19.788 22.3124 19.5976 22.7702 19.2168 23.151C18.836 23.5318 18.3783 23.7222 17.8435 23.7222H6.17687ZM6.17687 21.7777H17.8435V6.22217H15.8991V13.0277L13.4685 11.5694L11.038 13.0277V6.22217H6.17687V21.7777Z" fill="#374151"/>
</svg>
