<svg width="25" height="28" viewBox="0 0 25 28" fill="none" xmlns="http://www.w3.org/2000/svg">
<path d="M9.33648 23.7222L8.94759 20.6111C8.73694 20.53 8.53845 20.4328 8.35211 20.3194C8.16576 20.206 7.98347 20.0844 7.80523 19.9548L4.91287 21.1701L2.23926 16.552L4.74273 14.6562C4.72653 14.5428 4.71842 14.4334 4.71842 14.3281C4.71842 14.2227 4.71842 14.1134 4.71842 13.9999C4.71842 13.8865 4.71842 13.7771 4.71842 13.6718C4.71842 13.5665 4.72653 13.4571 4.74273 13.3437L2.23926 11.4479L4.91287 6.82981L7.80523 8.04508C7.98347 7.91545 8.16981 7.79393 8.36426 7.6805C8.5587 7.56708 8.75315 7.46985 8.94759 7.38883L9.33648 4.27772H14.6837L15.0726 7.38883C15.2832 7.46985 15.4817 7.56708 15.6681 7.6805C15.8544 7.79393 16.0367 7.91545 16.215 8.04508L19.1073 6.82981L21.7809 11.4479L19.2775 13.3437C19.2937 13.4571 19.3018 13.5665 19.3018 13.6718C19.3018 13.7771 19.3018 13.8865 19.3018 13.9999C19.3018 14.1134 19.3018 14.2227 19.3018 14.3281C19.3018 14.4334 19.2856 14.5428 19.2531 14.6562L21.7566 16.552L19.083 21.1701L16.215 19.9548C16.0367 20.0844 15.8504 20.206 15.6559 20.3194C15.4615 20.4328 15.267 20.53 15.0726 20.6111L14.6837 23.7222H9.33648ZM11.0379 21.7777H12.958L13.2983 19.2013C13.8006 19.0717 14.2665 18.8813 14.6959 18.6302C15.1253 18.379 15.5182 18.0752 15.8747 17.7187L18.2809 18.7152L19.2288 17.0624L17.1386 15.4826C17.2196 15.2557 17.2763 15.0167 17.3087 14.7656C17.3411 14.5144 17.3573 14.2592 17.3573 13.9999C17.3573 13.7407 17.3411 13.4855 17.3087 13.2343C17.2763 12.9832 17.2196 12.7442 17.1386 12.5173L19.2288 10.9374L18.2809 9.28467L15.8747 10.3055C15.5182 9.93282 15.1253 9.62089 14.6959 9.36974C14.2665 9.11858 13.8006 8.92819 13.2983 8.79856L12.9823 6.22217H11.0622L10.7219 8.79856C10.2196 8.92819 9.75373 9.11858 9.32433 9.36974C8.89493 9.62089 8.50199 9.92471 8.14551 10.2812L5.73926 9.28467L4.79134 10.9374L6.88162 12.493C6.8006 12.7361 6.74389 12.9791 6.71148 13.2222C6.67907 13.4652 6.66287 13.7245 6.66287 13.9999C6.66287 14.2592 6.67907 14.5104 6.71148 14.7534C6.74389 14.9965 6.8006 15.2395 6.88162 15.4826L4.79134 17.0624L5.73926 18.7152L8.14551 17.6944C8.50199 18.0671 8.89493 18.379 9.32433 18.6302C9.75373 18.8813 10.2196 19.0717 10.7219 19.2013L11.0379 21.7777ZM12.0587 17.4027C12.9985 17.4027 13.8006 17.0705 14.465 16.4062C15.1293 15.7418 15.4615 14.9398 15.4615 13.9999C15.4615 13.0601 15.1293 12.258 14.465 11.5937C13.8006 10.9293 12.9985 10.5972 12.0587 10.5972C11.1027 10.5972 10.2965 10.9293 9.6403 11.5937C8.98405 12.258 8.65593 13.0601 8.65593 13.9999C8.65593 14.9398 8.98405 15.7418 9.6403 16.4062C10.2965 17.0705 11.1027 17.4027 12.0587 17.4027Z" fill="#374151"/>
</svg>
