<svg width="25" height="28" viewBox="0 0 25 28" fill="none" xmlns="http://www.w3.org/2000/svg">
<path d="M15.2186 18.5694L16.5798 17.2083L12.9825 13.6111V9.13883H11.0381V14.3888L15.2186 18.5694ZM12.0103 23.7222C10.6654 23.7222 9.40151 23.467 8.21864 22.9565C7.03577 22.4461 6.00684 21.7534 5.13184 20.8784C4.25684 20.0034 3.56413 18.9745 3.05371 17.7916C2.54329 16.6087 2.28809 15.3449 2.28809 13.9999C2.28809 12.655 2.54329 11.3911 3.05371 10.2083C3.56413 9.02541 4.25684 7.99647 5.13184 7.12147C6.00684 6.24647 7.03577 5.55376 8.21864 5.04335C9.40151 4.53293 10.6654 4.27772 12.0103 4.27772C13.3552 4.27772 14.6191 4.53293 15.802 5.04335C16.9848 5.55376 18.0138 6.24647 18.8888 7.12147C19.7638 7.99647 20.4565 9.02541 20.9669 10.2083C21.4773 11.3911 21.7325 12.655 21.7325 13.9999C21.7325 15.3449 21.4773 16.6087 20.9669 17.7916C20.4565 18.9745 19.7638 20.0034 18.8888 20.8784C18.0138 21.7534 16.9848 22.4461 15.802 22.9565C14.6191 23.467 13.3552 23.7222 12.0103 23.7222ZM12.0103 21.7777C14.1654 21.7777 16.0005 21.0202 17.5155 19.5052C19.0306 17.9901 19.7881 16.155 19.7881 13.9999C19.7881 11.8449 19.0306 10.0098 17.5155 8.49474C16.0005 6.97969 14.1654 6.22217 12.0103 6.22217C9.85522 6.22217 8.02015 6.97969 6.5051 8.49474C4.99005 10.0098 4.23253 11.8449 4.23253 13.9999C4.23253 16.155 4.99005 17.9901 6.5051 19.5052C8.02015 21.0202 9.85522 21.7777 12.0103 21.7777Z" fill="#374151"/>
</svg>
