<svg width="25" height="28" viewBox="0 0 25 28" fill="none" xmlns="http://www.w3.org/2000/svg">
<path d="M1.31543 21.7778V19.0556C1.31543 18.5047 1.45721 17.9983 1.74078 17.5365C2.02434 17.0747 2.40108 16.7223 2.87099 16.4792C3.87561 15.9769 4.89645 15.6002 5.93349 15.349C6.97052 15.0979 8.02376 14.9723 9.09321 14.9723C10.1627 14.9723 11.2159 15.0979 12.2529 15.349C13.29 15.6002 14.3108 15.9769 15.3154 16.4792C15.7853 16.7223 16.1621 17.0747 16.4456 17.5365C16.7292 17.9983 16.871 18.5047 16.871 19.0556V21.7778H1.31543ZM18.8154 21.7778V18.8612C18.8154 18.1482 18.6169 17.4636 18.2199 16.8073C17.823 16.1511 17.2599 15.588 16.5307 15.1181C17.3571 15.2153 18.1349 15.3814 18.864 15.6164C19.5932 15.8513 20.2738 16.1389 20.9057 16.4792C21.489 16.8033 21.9346 17.1638 22.2425 17.5608C22.5504 17.9578 22.7043 18.3913 22.7043 18.8612V21.7778H18.8154ZM9.09321 14.0001C8.02376 14.0001 7.10825 13.6193 6.34668 12.8577C5.58511 12.0961 5.20432 11.1806 5.20432 10.1112C5.20432 9.04172 5.58511 8.12621 6.34668 7.36464C7.10825 6.60306 8.02376 6.22228 9.09321 6.22228C10.1627 6.22228 11.0782 6.60306 11.8397 7.36464C12.6013 8.12621 12.9821 9.04172 12.9821 10.1112C12.9821 11.1806 12.6013 12.0961 11.8397 12.8577C11.0782 13.6193 10.1627 14.0001 9.09321 14.0001ZM18.8154 10.1112C18.8154 11.1806 18.4346 12.0961 17.6731 12.8577C16.9115 13.6193 15.996 14.0001 14.9265 14.0001C14.7483 14.0001 14.5214 13.9798 14.246 13.9393C13.9705 13.8988 13.7437 13.8542 13.5654 13.8056C14.0029 13.2871 14.3392 12.7119 14.5741 12.0799C14.8091 11.448 14.9265 10.7917 14.9265 10.1112C14.9265 9.43061 14.8091 8.77436 14.5741 8.14242C14.3392 7.51047 14.0029 6.93524 13.5654 6.41672C13.7923 6.3357 14.0191 6.28304 14.246 6.25873C14.4728 6.23443 14.6997 6.22228 14.9265 6.22228C15.996 6.22228 16.9115 6.60306 17.6731 7.36464C18.4346 8.12621 18.8154 9.04172 18.8154 10.1112ZM3.25987 19.8334H14.9265V19.0556C14.9265 18.8774 14.882 18.7153 14.7929 18.5695C14.7037 18.4237 14.5863 18.3102 14.4404 18.2292C13.5654 17.7917 12.6823 17.4636 11.7911 17.2448C10.8999 17.0261 10.0006 16.9167 9.09321 16.9167C8.1858 16.9167 7.28649 17.0261 6.39529 17.2448C5.50409 17.4636 4.62099 17.7917 3.74599 18.2292C3.60015 18.3102 3.48268 18.4237 3.39355 18.5695C3.30443 18.7153 3.25987 18.8774 3.25987 19.0556V19.8334ZM9.09321 12.0556C9.62793 12.0556 10.0857 11.8652 10.4665 11.4844C10.8473 11.1036 11.0377 10.6459 11.0377 10.1112C11.0377 9.57644 10.8473 9.11869 10.4665 8.7379C10.0857 8.35711 9.62793 8.16672 9.09321 8.16672C8.55849 8.16672 8.10073 8.35711 7.71994 8.7379C7.33916 9.11869 7.14876 9.57644 7.14876 10.1112C7.14876 10.6459 7.33916 11.1036 7.71994 11.4844C8.10073 11.8652 8.55849 12.0556 9.09321 12.0556Z" fill="#374151"/>
</svg>
